<svg width="32" height="30" viewBox="0 0 32 30" fill="none" xmlns="http://www.w3.org/2000/svg">
<g clip-path="url(#clip0_1066_1008)">
<path d="M25.0167 0.852204C25.94 1.59079 26.5476 2.55586 26.6858 3.69148C26.6925 3.8564 26.6918 4.02087 26.6897 4.18587C26.6895 4.22873 26.6892 4.2716 26.6889 4.31576C26.6882 4.42017 26.687 4.52458 26.6858 4.62898C26.738 4.65383 26.7901 4.67868 26.8438 4.70429C27.284 4.91936 27.6807 5.14824 28.0608 5.4493C28.1016 5.47838 28.1424 5.50745 28.1844 5.53742C28.9687 6.12183 29.5159 7.06914 29.7483 7.96883C29.7588 8.00584 29.7693 8.04286 29.7801 8.08099C30.0977 9.27708 29.8576 10.6055 29.1995 11.6634C28.3578 12.8941 27.1679 13.6566 25.6463 13.9804C25.3288 14.016 25.013 14.01 24.6937 14.0076C24.6268 14.0074 24.5599 14.0071 24.491 14.0068C24.3268 14.0062 24.1626 14.0052 23.9983 14.004C23.9899 14.0537 23.9814 14.1034 23.9727 14.1546C23.7686 15.1971 23.2076 16.0506 22.3108 16.6993C21.2001 17.4144 20.1157 17.5464 18.8054 17.5424C18.6744 17.5426 18.5434 17.5429 18.4124 17.5433C18.0589 17.5441 17.7055 17.5438 17.3521 17.5432C16.9807 17.5428 16.6094 17.5432 16.2381 17.5435C15.6146 17.5438 14.9912 17.5434 14.3677 17.5425C13.6489 17.5416 12.93 17.5419 12.2112 17.5428C11.592 17.5436 10.9728 17.5438 10.3536 17.5433C9.98466 17.543 9.61573 17.543 9.24679 17.5436C8.89974 17.5441 8.5527 17.5437 8.20564 17.5427C8.07895 17.5425 7.95225 17.5425 7.82555 17.5429C6.13938 17.5476 4.73317 17.1931 3.49834 16.0548C3.43272 15.9944 3.43272 15.9944 3.36577 15.9328C2.40564 14.987 2.08741 13.7951 2.10625 12.5213C2.13999 11.5796 2.53258 10.677 3.18584 9.96101C3.22613 9.91487 3.26641 9.86872 3.30791 9.82117C3.84232 9.23275 4.48593 8.79302 5.24834 8.49617C5.28959 8.49617 5.33084 8.49617 5.37334 8.49617C5.36279 8.45689 5.35223 8.41762 5.34136 8.37715C5.18014 7.45821 5.52694 6.50185 6.06084 5.74226C6.80403 4.83626 7.82783 4.1936 9.04052 4.00162C10.1973 3.86497 11.3268 4.02122 12.3733 4.5118C12.3879 4.46217 12.4025 4.41255 12.4175 4.36142C12.5109 4.12897 12.6354 3.95265 12.7913 3.75374C12.8196 3.71747 12.8479 3.6812 12.8771 3.64383C13.5606 2.78061 14.5223 2.23989 15.6462 2.01488C15.982 1.96876 16.3199 1.97797 16.6585 1.98128C16.7323 1.98132 16.806 1.98135 16.882 1.98139C17.2597 1.98318 17.625 1.99678 17.9983 2.05086C18.0234 2.01468 18.0485 1.9785 18.0743 1.94122C18.6972 1.07114 19.5026 0.519113 20.5608 0.175858C20.6178 0.157126 20.6748 0.138395 20.7334 0.119095C22.168 -0.268755 23.8457 -0.027965 25.0167 0.852204ZM19.3108 2.16805C19.0635 2.46246 18.875 2.78856 18.6907 3.12019C18.6233 3.22273 18.6233 3.22273 18.4983 3.28133C18.2108 3.31001 18.0413 3.27704 17.7796 3.16414C17.0434 2.89646 16.027 2.94859 15.2928 3.20786C14.4046 3.593 13.7737 4.15161 13.3455 4.9794C13.2888 5.16187 13.2888 5.16187 13.4129 5.32341C13.4643 5.37704 13.5157 5.43067 13.5687 5.48592C13.6191 5.53985 13.6695 5.59378 13.7215 5.64934C13.7716 5.69934 13.8217 5.74934 13.8733 5.80086C13.9148 5.84693 13.9562 5.89301 13.9988 5.94048C14.1147 6.04951 14.1147 6.04951 14.263 6.03249C14.3149 6.01889 14.3668 6.0053 14.4202 5.99129C15.6284 5.73756 17.056 5.9754 18.1133 6.57901C18.2882 6.68527 18.4559 6.79767 18.6233 6.91414C18.672 6.9479 18.7207 6.98166 18.7708 7.01645C19.4566 7.53606 19.9274 8.30768 20.0882 9.11141C20.1369 9.32025 20.1369 9.32025 20.2483 9.49226C20.5118 9.61713 20.777 9.66076 21.0651 9.70478C21.87 9.85048 22.6127 10.374 23.1233 10.9571C23.5691 11.5776 23.8086 12.2271 23.9983 12.9493C25.3487 12.9969 26.4041 12.8255 27.4629 11.9768C28.26 11.2773 28.7338 10.3449 28.7734 9.32238C28.7916 8.19075 28.3505 7.22461 27.5236 6.40951C27.0516 5.97207 26.4158 5.69342 25.803 5.47127C25.6003 5.38037 25.5717 5.34855 25.4983 5.15633C25.4998 5.01717 25.4998 5.01717 25.5218 4.86336C25.6342 3.89587 25.5043 3.01949 24.8548 2.22733C24.3074 1.6384 23.5434 1.114 22.6826 1.04439C21.3639 1.00974 20.2509 1.23244 19.3108 2.16805ZM7.18584 6.15242C6.58239 6.85534 6.40312 7.57482 6.47881 8.45955C6.48487 8.51044 6.49093 8.56134 6.49717 8.61377C6.5311 8.9809 6.5311 8.9809 6.36553 9.19632C6.18827 9.31486 6.0344 9.38959 5.83037 9.45931C4.86076 9.81868 4.06049 10.4269 3.5899 11.3137C3.22588 12.1037 3.07123 13.0094 3.36773 13.8458C3.81618 14.8871 4.48697 15.6585 5.59134 16.1442C6.42457 16.4719 7.23361 16.4987 8.12304 16.4943C8.25189 16.4945 8.38075 16.4949 8.5096 16.4953C8.85657 16.4961 9.20351 16.4954 9.55048 16.4945C9.91506 16.4937 10.2796 16.494 10.6442 16.4942C11.2559 16.4944 11.8677 16.4936 12.4794 16.4923C13.1852 16.4907 13.891 16.4906 14.5968 16.4913C15.278 16.4919 15.9592 16.4916 16.6405 16.4907C16.9294 16.4904 17.2184 16.4904 17.5073 16.4907C17.8478 16.491 18.1882 16.4904 18.5286 16.4891C18.6531 16.4888 18.7776 16.4887 18.902 16.489C20.0916 16.4915 21.1 16.3391 21.9986 15.5368C22.7363 14.7884 22.9255 14.0135 22.8845 13.0269C22.8284 12.344 22.4088 11.6997 21.8848 11.2391C21.1575 10.6731 20.3145 10.4713 19.385 10.5328C18.9152 10.5813 18.4469 10.6961 18.0152 10.8756C17.7797 10.9695 17.6267 10.9885 17.3733 10.9571C17.221 10.8765 17.221 10.8765 17.1233 10.7227C17.1033 10.5258 17.1089 10.3339 17.1233 10.1368C17.1672 10.1204 17.211 10.104 17.2562 10.0871C17.3762 10.042 17.496 9.9964 17.6155 9.95026C18.0413 9.79009 18.4551 9.6728 18.9056 9.59045C18.9568 9.57739 19.008 9.56432 19.0608 9.55086C19.1427 9.43006 19.1427 9.43006 19.0765 9.27414C18.9015 8.83586 18.7099 8.49035 18.3733 8.14461C18.3153 8.0832 18.3153 8.0832 18.2562 8.02055C17.6382 7.40151 16.7425 6.98617 15.8353 6.95305C15.7073 6.95134 15.5794 6.95061 15.4515 6.95076C15.3517 6.95065 15.3517 6.95065 15.2498 6.95053C14.8228 6.95593 14.4761 6.99086 14.0838 7.15584C13.895 7.22127 13.7607 7.23096 13.5608 7.20711C13.3531 7.05911 13.2573 6.89053 13.1468 6.67244C12.6704 5.83205 11.8898 5.43372 10.962 5.15518C9.54654 4.77453 8.19566 5.16477 7.18584 6.15242Z" fill="white"/>
<path d="M11.999 18.5157C12.1987 18.6437 12.2417 18.717 12.2912 18.9399C12.3118 19.1632 12.2918 19.326 12.2393 19.5438C12.222 19.6173 12.2047 19.6908 12.1868 19.7665C12.1674 19.8455 12.1479 19.9246 12.1284 20.0036C12.1088 20.0855 12.0893 20.1674 12.0698 20.2493C12.0289 20.4203 11.9876 20.5911 11.9458 20.7619C11.8923 20.9809 11.8396 21.2001 11.7872 21.4193C11.7371 21.6286 11.6867 21.8379 11.6362 22.0471C11.6218 22.107 11.6218 22.107 11.6071 22.1681C11.5799 22.2808 11.5524 22.3934 11.5249 22.506C11.5094 22.57 11.4938 22.6341 11.4777 22.7001C11.4365 22.8516 11.4365 22.8516 11.374 22.9688C11.4454 22.967 11.4454 22.967 11.5182 22.9651C11.7345 22.9602 11.9507 22.9572 12.167 22.9542C12.2419 22.9522 12.3168 22.9502 12.3939 22.9482C12.5024 22.9471 12.5024 22.9471 12.6131 22.9459C12.6795 22.9447 12.7459 22.9435 12.8144 22.9422C13.0459 22.9756 13.1474 23.0491 13.3115 23.2032C13.3976 23.4546 13.3982 23.5673 13.273 23.8054C13.1209 24.042 12.9337 24.2433 12.7373 24.4483C12.6642 24.5259 12.5912 24.6036 12.5183 24.6813C12.4829 24.719 12.4474 24.7567 12.4109 24.7956C12.2316 24.9884 12.0609 25.1875 11.8892 25.3863C11.7301 25.5686 11.568 25.7483 11.4053 25.9278C11.1945 26.1603 10.9858 26.3942 10.7803 26.6309C10.546 26.9007 10.3072 27.1665 10.0669 27.4315C9.88576 27.6317 9.70707 27.8336 9.53029 28.0372C9.29638 28.3066 9.05794 28.572 8.81787 28.8366C8.5817 29.0974 8.35107 29.362 8.12233 29.6286C7.79819 29.989 7.79819 29.989 7.61037 30.0312C7.22797 30.0263 7.22797 30.0263 7.03029 29.9012C6.8987 29.711 6.85959 29.5547 6.89923 29.3297C6.91473 29.2798 6.93023 29.2298 6.9462 29.1784C6.96358 29.1213 6.98096 29.0641 6.99887 29.0053C7.01834 28.9439 7.03781 28.8825 7.05788 28.8193C7.08769 28.7226 7.08769 28.7226 7.1181 28.6239C7.18176 28.4183 7.24652 28.2131 7.31154 28.0079C7.33219 27.9423 7.35284 27.8767 7.37411 27.8091C7.51688 27.3561 7.66197 26.9037 7.80763 26.4515C7.85082 26.317 7.89399 26.1825 7.93715 26.0481C8.04096 25.7247 8.14493 25.4014 8.24904 25.0782C8.20301 25.0776 8.15699 25.0771 8.10957 25.0765C7.90081 25.0734 7.69214 25.0685 7.48341 25.0635C7.41098 25.0627 7.33856 25.0619 7.26393 25.061C7.19424 25.0591 7.12455 25.0572 7.05275 25.0553C6.9886 25.0541 6.92445 25.0528 6.85835 25.0516C6.64527 25.0119 6.57176 24.9412 6.43654 24.7852C6.34816 24.6195 6.35769 24.5004 6.37404 24.3165C6.45705 24.17 6.45705 24.17 6.57716 24.0235C6.64532 23.9402 6.64532 23.9402 6.71486 23.8553C6.95065 23.5805 7.19698 23.3142 7.44362 23.048C7.63668 22.8391 7.82105 22.6244 8.00392 22.4076C8.22802 22.1428 8.45787 21.8824 8.68654 21.6211C8.78031 21.5137 8.87406 21.4063 8.96779 21.2989C10.0928 20.0098 10.0928 20.0098 10.2332 19.8491C10.328 19.7404 10.4225 19.6314 10.5169 19.5223C11.4827 18.4072 11.4827 18.4072 11.999 18.5157ZM10.5615 21.1524C10.2005 21.5493 9.84218 21.9473 9.49635 22.3561C9.36446 22.5113 9.23082 22.6651 9.09669 22.8187C9.05037 22.8718 9.00404 22.9249 8.95631 22.9796C8.85572 23.0942 8.75461 23.2085 8.65309 23.3224C8.60225 23.3798 8.55142 23.4371 8.49904 23.4961C8.45263 23.5481 8.40623 23.6001 8.35841 23.6536C8.23871 23.7869 8.23871 23.7869 8.18654 23.9649C8.28938 23.9682 8.28938 23.9682 8.3943 23.9715C8.48521 23.9754 8.57611 23.9793 8.66701 23.9832C8.73462 23.9852 8.73462 23.9852 8.8036 23.9872C9.08292 24.0004 9.27059 24.0334 9.49904 24.1993C9.67391 24.5271 9.523 24.8965 9.40895 25.2219C9.39354 25.2677 9.37813 25.3136 9.36226 25.3608C9.31339 25.506 9.26373 25.651 9.21388 25.796C9.16384 25.9417 9.114 26.0876 9.06484 26.2336C9.03434 26.3242 9.00334 26.4147 8.97178 26.505C8.88381 26.7564 8.88381 26.7564 8.93654 27.0118C9.27388 26.6671 9.59866 26.3158 9.91261 25.9523C10.0745 25.7664 10.2395 25.5832 10.4053 25.4004C10.6241 25.1586 10.8421 24.9162 11.0576 24.6717C11.1007 24.6228 11.1438 24.5739 11.1882 24.5236C11.3227 24.3616 11.4422 24.1954 11.5615 24.0235C11.4877 24.0206 11.4139 24.0177 11.3379 24.0148C11.2406 24.0104 11.1432 24.006 11.0459 24.0015C10.9973 23.9997 10.9488 23.9979 10.8987 23.996C10.4368 23.9738 10.4368 23.9738 10.249 23.8477C10.0046 23.3893 10.2901 22.7164 10.4092 22.2437C10.4414 22.1154 10.4734 21.987 10.5047 21.8585C10.533 21.7429 10.562 21.6274 10.591 21.5119C10.64 21.3272 10.64 21.3272 10.5615 21.1524Z" fill="#EBFF00"/>
<path d="M24.3106 18.5155C24.4629 18.64 24.4629 18.64 24.5606 18.8085C24.5768 19.0868 24.5454 19.333 24.4803 19.6041C24.454 19.7149 24.454 19.7149 24.4272 19.8279C24.4079 19.9073 24.3885 19.9868 24.3692 20.0662C24.3495 20.1484 24.3299 20.2305 24.3103 20.3127C24.259 20.5279 24.207 20.743 24.155 20.958C24.1019 21.1779 24.0493 21.3979 23.9966 21.6179C23.8935 22.0487 23.7897 22.4794 23.6856 22.91C23.7313 22.9106 23.777 22.9111 23.8241 22.9117C24.0319 22.9149 24.2396 22.9198 24.4473 22.9247C24.5192 22.9255 24.5911 22.9264 24.6652 22.9272C24.7694 22.93 24.7694 22.93 24.8758 22.9329C24.9715 22.9348 24.9715 22.9348 25.0692 22.9367C25.2916 22.9764 25.3982 23.0579 25.5606 23.203C25.6502 23.3709 25.6422 23.485 25.6231 23.6718C25.4497 23.9438 25.2395 24.1779 25.0176 24.4152C24.9503 24.4879 24.8831 24.5607 24.816 24.6335C24.7831 24.6692 24.7502 24.7049 24.7163 24.7416C24.5413 24.9332 24.3725 25.1296 24.2029 25.3254C24.043 25.5083 23.8802 25.6888 23.7168 25.869C23.506 26.1016 23.2974 26.3354 23.0918 26.5722C22.8576 26.842 22.6187 27.1077 22.3785 27.3728C22.1973 27.573 22.0186 27.7748 21.8418 27.9784C21.6079 28.2479 21.3694 28.5134 21.1293 28.778C20.895 29.0367 20.6664 29.2994 20.44 29.5641C20.0603 29.9832 20.0603 29.9832 19.8533 30.0388C19.6042 30.0347 19.4768 30.03 19.2754 29.8827C19.0936 29.527 19.1875 29.1736 19.3051 28.8103C19.3178 28.7704 19.3305 28.7305 19.3436 28.6894C19.3852 28.5592 19.4279 28.4293 19.4705 28.2993C19.4998 28.2083 19.5291 28.1173 19.5583 28.0263C19.6351 27.7878 19.7126 27.5496 19.7904 27.3115C19.8539 27.1165 19.9167 26.9214 19.9796 26.7263C20.0545 26.4937 20.1296 26.2612 20.2049 26.0288C20.2193 25.9844 20.2336 25.94 20.2484 25.8943C20.289 25.7691 20.3297 25.644 20.3705 25.519C20.4053 25.4122 20.4053 25.4122 20.4408 25.3033C20.4981 25.1366 20.4981 25.1366 20.5606 25.0194C20.4921 25.0213 20.4921 25.0213 20.4221 25.0231C20.2144 25.028 20.0067 25.0311 19.7989 25.0341C19.727 25.036 19.6551 25.038 19.581 25.04C19.5115 25.0408 19.442 25.0415 19.3704 25.0423C19.3066 25.0435 19.2428 25.0448 19.177 25.046C18.9494 25.0122 18.8476 24.9361 18.6856 24.785C18.5988 24.5314 18.5991 24.42 18.7266 24.1803C18.8683 23.9599 19.0382 23.7715 19.2208 23.5802C19.4787 23.3043 19.7276 23.0246 19.9668 22.7343C20.2281 22.418 20.5008 22.1134 20.7806 21.8114C20.9962 21.5774 21.2024 21.3381 21.4043 21.0936C21.67 20.7722 21.947 20.4621 22.2308 20.1547C22.5461 19.8128 22.8455 19.46 23.1426 19.1042C23.1916 19.0465 23.2406 18.9888 23.2911 18.9293C23.3351 18.8768 23.3792 18.8243 23.4246 18.7703C23.7035 18.4882 23.9088 18.4059 24.3106 18.5155ZM22.8106 21.1522C22.7083 21.2707 22.6086 21.3901 22.5098 21.5111C22.26 21.8134 22.0035 22.1083 21.7364 22.3973C21.44 22.7184 21.1525 23.0445 20.8731 23.3788C20.831 23.4286 20.7888 23.4785 20.7454 23.5299C20.5436 23.7285 20.5436 23.7285 20.4356 23.9647C20.5034 23.9676 20.5713 23.9705 20.6412 23.9734C20.7315 23.9778 20.8218 23.9823 20.9122 23.9867C20.9567 23.9885 21.0013 23.9903 21.0472 23.9922C21.3213 24.0063 21.5518 24.0464 21.8106 24.1405C21.8838 24.7564 21.665 25.2936 21.4629 25.869C21.4128 26.0132 21.363 26.1575 21.3139 26.302C21.2835 26.3913 21.2525 26.4805 21.2208 26.5694C21.1326 26.8176 21.1326 26.8176 21.1856 27.0702C21.5114 26.7111 21.8369 26.3519 22.1543 25.9862C22.3599 25.7495 22.5686 25.5157 22.7793 25.2831C23.0005 25.0386 23.2212 24.7937 23.4395 24.547C23.4841 24.4968 23.5286 24.4466 23.5745 24.3948C23.6725 24.2739 23.7449 24.1615 23.8106 24.0233C23.7375 24.0225 23.6644 24.0217 23.5892 24.0208C23.4924 24.0181 23.3956 24.0152 23.2989 24.0123C23.2508 24.012 23.2028 24.0117 23.1532 24.0113C22.8972 24.002 22.7733 23.9811 22.5574 23.8409C22.3708 23.5818 22.418 23.3531 22.4758 23.053C22.4941 22.9809 22.5124 22.9088 22.5313 22.8345C22.541 22.7955 22.5507 22.7564 22.5607 22.7162C22.5915 22.5927 22.6229 22.4694 22.6543 22.3461C22.6858 22.2223 22.7171 22.0986 22.748 21.9747C22.7759 21.8626 22.8044 21.7506 22.8329 21.6387C22.868 21.4697 22.8816 21.3235 22.8731 21.1522C22.8525 21.1522 22.8318 21.1522 22.8106 21.1522Z" fill="#FAFF00"/>
<path d="M29.062 22.5584C29.2492 22.7115 29.3064 22.7992 29.3312 23.0314C29.3068 23.323 29.2142 23.5605 29.102 23.8317C29.0804 23.8852 29.0588 23.9387 29.0365 23.9938C28.9909 24.1063 28.9448 24.2188 28.8985 24.3311C28.8277 24.5027 28.7585 24.6749 28.6894 24.8471C28.6447 24.9567 28.6 25.0662 28.5551 25.1757C28.5346 25.227 28.514 25.2784 28.4928 25.3313C28.3869 25.5849 28.2997 25.7864 28.062 25.9569C27.8704 25.9999 27.6928 25.9899 27.4995 25.9569C27.3283 25.8486 27.2692 25.7771 27.2036 25.5952C27.1812 25.3716 27.2487 25.194 27.3276 24.9864C27.344 24.9423 27.3604 24.8981 27.3773 24.8526C27.4376 24.6929 27.4997 24.5339 27.562 24.3749C27.5882 24.3069 27.6144 24.239 27.6414 24.1689C27.7135 23.9836 27.7867 23.7988 27.8611 23.6143C27.9051 23.5047 27.9481 23.3948 27.991 23.2848C28.2251 22.7156 28.2251 22.7156 28.4443 22.5692C28.684 22.4769 28.8156 22.4857 29.062 22.5584Z" fill="white"/>
<path d="M16.8015 23.0521C16.9901 23.1763 17.0427 23.2554 17.1019 23.4647C17.1177 23.7683 17.0292 23.9849 16.9123 24.2647C16.8908 24.318 16.8692 24.3714 16.8471 24.4264C16.8014 24.5387 16.7552 24.6509 16.7086 24.7629C16.6377 24.9338 16.5687 25.1053 16.5 25.277C16.4553 25.3864 16.4104 25.4957 16.3655 25.605C16.345 25.6561 16.3245 25.7071 16.3035 25.7597C16.1799 26.0529 16.0632 26.2495 15.8015 26.4505C15.6123 26.5037 15.5046 26.4777 15.3015 26.4505C15.102 26.3306 15.0609 26.2505 15.0023 26.0359C14.9853 25.7416 15.066 25.5368 15.1792 25.2656C15.1995 25.215 15.2198 25.1644 15.2407 25.1122C15.2837 25.0057 15.3272 24.8992 15.3711 24.793C15.4379 24.6311 15.5032 24.4688 15.5682 24.3062C15.6103 24.2024 15.6525 24.0986 15.6948 23.9948C15.7239 23.9226 15.7239 23.9226 15.7536 23.8489C16.0112 23.2295 16.0112 23.2295 16.2937 23.0264C16.4851 22.9789 16.6121 23.0003 16.8015 23.0521Z" fill="white"/>
<path d="M4.49837 23.0476C4.65178 23.1564 4.72993 23.2356 4.7972 23.4046C4.81742 23.6564 4.72815 23.8535 4.63509 24.0876C4.61569 24.1377 4.59629 24.1878 4.5763 24.2395C4.5099 24.409 4.44185 24.5779 4.37337 24.7468C4.34753 24.8109 4.32169 24.8749 4.29507 24.941C4.21414 25.1403 4.13193 25.3391 4.04916 25.5378C4.02319 25.6011 3.99722 25.6643 3.97047 25.7295C3.94527 25.7889 3.92008 25.8483 3.89413 25.9095C3.87204 25.9622 3.84995 26.0149 3.82719 26.0691C3.73792 26.2305 3.64855 26.3312 3.49837 26.446C3.18776 26.4876 3.0703 26.4924 2.81087 26.3251C2.65057 26.1044 2.66173 26.0081 2.68587 25.7429C2.74233 25.5477 2.8179 25.3611 2.89584 25.1727C2.91744 25.1192 2.93904 25.0657 2.9613 25.0106C3.00697 24.8981 3.05301 24.7857 3.09939 24.6734C3.17013 24.5017 3.23935 24.3295 3.30843 24.1573C3.3531 24.0477 3.39786 23.9382 3.44271 23.8287C3.46329 23.7774 3.48388 23.7261 3.50508 23.6732C3.61091 23.4196 3.69776 23.2174 3.93587 23.0476C4.1599 22.9775 4.27144 22.9911 4.49837 23.0476Z" fill="white"/>
<path d="M4.64453 18.1072C4.81079 18.2861 4.8268 18.4604 4.8125 18.6895C4.74009 18.9448 4.64413 19.1893 4.54065 19.4347C4.49224 19.5499 4.44597 19.6658 4.3999 19.7818C4.36943 19.8562 4.33883 19.9305 4.30811 20.0048C4.28054 20.0715 4.25298 20.1382 4.22458 20.2069C4.1138 20.4091 3.99797 20.5359 3.8125 20.6817C3.55447 20.7205 3.42504 20.7071 3.19531 20.5901C3.02099 20.4026 3.01614 20.2838 3 20.0371C3.05205 19.8392 3.05205 19.8392 3.1355 19.6357C3.15025 19.5992 3.16501 19.5628 3.18021 19.5252C3.21143 19.4487 3.24312 19.3724 3.27528 19.2963C3.3241 19.1805 3.3712 19.0641 3.41809 18.9476C3.68535 18.2978 3.68535 18.2978 3.9375 18.0449C4.2009 17.9626 4.39395 17.9993 4.64453 18.1072Z" fill="white"/>
<path d="M28.5225 18.0476C28.671 18.1354 28.671 18.1354 28.7725 18.2819C28.8286 18.7464 28.681 19.109 28.496 19.5371C28.4482 19.6482 28.4025 19.7599 28.3569 19.8719C28.0964 20.4872 28.0964 20.4872 27.7725 20.6843C27.4977 20.7257 27.3827 20.7147 27.1514 20.5671C26.9865 20.3422 26.9792 20.1843 27.0225 19.9226C27.1024 19.6761 27.1993 19.4377 27.3025 19.1991C27.3507 19.0874 27.3973 18.9752 27.4437 18.8628C27.7057 18.2457 27.7057 18.2457 27.96 18.0476C28.1841 17.9775 28.2956 17.9911 28.5225 18.0476Z" fill="white"/>
<path d="M16.5625 18.0494C16.7429 18.1968 16.8045 18.2878 16.8372 18.5102C16.8281 18.8641 16.653 19.1939 16.5156 19.5179C16.4879 19.5858 16.4602 19.6537 16.4316 19.7236C16.0836 20.5591 16.0836 20.5591 15.8125 20.6862C15.5354 20.7156 15.4187 20.7182 15.1953 20.5543C15.0703 20.4026 15.0284 20.3412 15 20.1588C15.0224 20.0475 15.0224 20.0475 15.0649 19.932C15.0805 19.889 15.096 19.8461 15.112 19.8018C15.1292 19.7565 15.1464 19.7111 15.1641 19.6644C15.1813 19.6177 15.1986 19.571 15.2164 19.5228C15.2685 19.383 15.3216 19.2435 15.375 19.1041C15.3897 19.0649 15.4045 19.0256 15.4197 18.9852C15.6701 18.3208 15.6701 18.3208 15.9375 18.0494C16.1771 17.9746 16.318 17.9931 16.5625 18.0494Z" fill="white"/>
<path d="M26.8164 27.3304C27.0625 27.3634 27.0625 27.3634 27.2148 27.4586C27.339 27.6355 27.3614 27.7364 27.375 27.9493C27.3273 28.1435 27.2546 28.327 27.1797 28.5133C27.1595 28.565 27.1393 28.6168 27.1185 28.6702C27.0591 28.8209 26.9985 28.9711 26.9375 29.1212C26.9218 29.1608 26.9061 29.2005 26.8899 29.2413C26.6466 29.8527 26.6466 29.8527 26.375 30.0001C26.13 30.0499 25.9341 30.0356 25.7227 29.9085C25.5938 29.7201 25.5795 29.5786 25.5625 29.3556C25.6136 29.1577 25.6136 29.1577 25.6958 28.9541C25.7104 28.9177 25.725 28.8812 25.7401 28.8437C25.771 28.7672 25.8024 28.6909 25.8344 28.6147C25.8827 28.499 25.929 28.3826 25.9751 28.2661C26.0056 28.1914 26.0362 28.1168 26.0669 28.0422C26.0945 27.9752 26.122 27.9081 26.1504 27.8391C26.2932 27.5771 26.4759 27.3196 26.8164 27.3304Z" fill="white"/>
<path d="M2.49844 27.3633C2.68594 27.4805 2.68594 27.4805 2.81094 27.6563C2.87484 28.0922 2.70415 28.4483 2.53094 28.8485C2.48274 28.9602 2.43619 29.0724 2.38979 29.1848C2.12862 29.7998 2.12862 29.7998 1.87344 30C1.61423 30.0582 1.3826 30.0377 1.15078 29.9158C1.01686 29.692 1.02685 29.4863 1.06094 29.2383C1.14449 28.9713 1.25352 28.7158 1.36562 28.4583C1.39439 28.39 1.42315 28.3217 1.45278 28.2513C1.87481 27.2553 1.87481 27.2553 2.49844 27.3633Z" fill="white"/>
<path d="M14.6795 27.3406C14.8123 27.3632 14.8123 27.3632 14.9685 27.4621C15.0793 27.6223 15.1099 27.699 15.1248 27.8906C15.0771 28.0805 15.0059 28.2609 14.9334 28.4436C14.9134 28.4952 14.8934 28.5469 14.8728 28.6002C14.3895 29.8345 14.3895 29.8345 14.1248 29.9999C13.8182 30.0324 13.6935 30.0443 13.4373 29.8791C13.2796 29.662 13.2926 29.5563 13.3123 29.2968C13.3714 29.098 13.3714 29.098 13.4539 28.8933C13.4759 28.8384 13.4759 28.8384 13.4983 28.7825C13.5293 28.7058 13.5606 28.6292 13.5923 28.5528C13.6404 28.4363 13.687 28.3193 13.7334 28.2022C13.7638 28.1274 13.7944 28.0525 13.825 27.9778C13.8662 27.8768 13.8662 27.8768 13.9083 27.7737C14.0947 27.4149 14.2693 27.3222 14.6795 27.3406Z" fill="white"/>
</g>
<defs>
<clipPath id="clip0_1066_1008">
<rect width="32" height="30" fill="white"/>
</clipPath>
</defs>
</svg>
