<svg width="32" height="30" viewBox="0 0 32 30" fill="none" xmlns="http://www.w3.org/2000/svg">
<mask id="mask0_1_236" style="mask-type:luminance" maskUnits="userSpaceOnUse" x="0" y="0" width="32" height="30">
<path d="M32 0H0V30H32V0Z" fill="white"/>
</mask>
<g mask="url(#mask0_1_236)">
<path d="M25.149 2.465C25.245 2.541 25.342 2.61801 25.438 2.69501C25.479 2.72601 25.52 2.75601 25.563 2.78701C26.838 3.75101 27.604 5.36901 27.797 6.86301C27.804 6.95801 27.809 7.05301 27.813 7.14901C27.815 7.21501 27.818 7.28001 27.82 7.34801C27.83 7.87901 27.776 8.38301 27.688 8.90601C27.746 8.92701 27.804 8.948 27.864 8.969C28.671 9.259 29.414 9.591 30.063 10.137C30.119 10.184 30.175 10.231 30.232 10.279C31.292 11.219 31.957 12.484 32.024 13.857C32.069 15.493 31.612 16.915 30.405 18.134C29.436 19.071 28.039 19.731 26.636 19.768C26.48 19.769 26.325 19.769 26.169 19.769C26.082 19.769 25.995 19.769 25.908 19.769C25.671 19.77 25.433 19.77 25.196 19.769C24.94 19.769 24.683 19.769 24.426 19.77C23.924 19.771 23.422 19.771 22.92 19.77C22.512 19.77 22.103 19.77 21.695 19.77C21.637 19.77 21.578 19.77 21.518 19.77C21.4 19.77 21.282 19.77 21.163 19.77C20.055 19.77 18.947 19.77 17.838 19.769C16.889 19.768 15.939 19.768 14.989 19.769C13.885 19.77 12.781 19.77 11.676 19.77C11.558 19.77 11.44 19.77 11.322 19.77C11.264 19.77 11.206 19.77 11.147 19.77C10.739 19.77 10.332 19.77 9.92401 19.77C9.42701 19.771 8.93002 19.771 8.43302 19.77C8.18002 19.769 7.92601 19.769 7.67301 19.77C7.44101 19.77 7.20801 19.77 6.97602 19.769C6.85301 19.769 6.731 19.769 6.608 19.77C5.877 19.765 5.16199 19.651 4.47299 19.417C4.42899 19.402 4.386 19.387 4.341 19.372C3.561 19.096 2.864 18.693 2.25 18.164C2.22 18.138 2.18899 18.112 2.15799 18.085C0.94799 17.037 0.0890002 15.544 -0.0129998 13.983C-0.0189998 13.77 -0.0200117 13.558 -0.0190117 13.345C-0.0190117 13.27 -0.0190046 13.194 -0.0180046 13.117C0.00599535 11.338 0.833004 9.82899 2.16 8.57999C3.516 7.37199 5.245 6.887 7.078 6.907C7.174 6.907 7.27 6.90801 7.366 6.90801C7.598 6.91001 7.83099 6.91201 8.06299 6.91401C8.10999 6.82501 8.10999 6.82501 8.15799 6.73301C8.79099 5.53601 9.81501 4.60401 11.173 4.14701C11.364 4.08701 11.556 4.035 11.75 3.985C11.806 3.97 11.861 3.956 11.918 3.941C12.891 3.734 13.864 3.86901 14.813 4.10201C14.917 4.12201 15.021 4.14201 15.125 4.16001C15.17 4.10101 15.17 4.101 15.215 4.04C16.405 2.469 17.947 1.545 19.958 1.194C21.817 1.013 23.66 1.368 25.149 2.465ZM16.813 4.10201C16.457 4.49401 16.172 4.91101 15.919 5.36701C15.793 5.53401 15.708 5.573 15.5 5.625C15.212 5.62 14.998 5.54301 14.742 5.42701C13.764 4.99701 12.697 4.98001 11.68 5.29201C10.704 5.62501 9.89 6.281 9.405 7.142C9.328 7.299 9.25599 7.45701 9.18799 7.61701C9.14399 7.71601 9.09999 7.81501 9.05499 7.91401C9.03699 7.95601 9.019 7.99699 9 8.04099C8.938 8.14499 8.938 8.145 8.75 8.262C8.462 8.299 8.18099 8.26501 7.89899 8.20401C6.52499 7.93801 5.05599 8.213 3.86899 8.901C3.69799 9.014 3.536 9.133 3.375 9.258C3.321 9.3 3.26701 9.34101 3.21201 9.38401C2.16401 10.231 1.40601 11.457 1.29901 12.767C1.23101 14.424 1.68999 15.742 2.86499 16.998C3.88899 18.019 5.288 18.49 6.75 18.574C7.025 18.582 7.30001 18.583 7.57401 18.582C7.65401 18.582 7.73401 18.582 7.81601 18.583C8.03501 18.583 8.25299 18.583 8.47199 18.583C8.70899 18.583 8.94602 18.583 9.18302 18.583C9.64602 18.584 10.109 18.584 10.572 18.584C10.949 18.584 11.326 18.584 11.702 18.584C12.772 18.585 13.842 18.585 14.912 18.585C14.97 18.585 15.027 18.585 15.087 18.585C15.144 18.585 15.202 18.585 15.261 18.585C16.195 18.585 17.13 18.586 18.064 18.587C19.025 18.587 19.986 18.588 20.946 18.588C21.485 18.588 22.024 18.588 22.563 18.589C23.021 18.589 23.48 18.589 23.939 18.589C24.172 18.589 24.406 18.589 24.64 18.589C26.414 18.593 28.016 18.535 29.384 17.343C30.366 16.359 30.756 15.245 30.711 13.918C30.646 12.796 30.091 11.901 29.25 11.133C29.214 11.098 29.177 11.064 29.14 11.028C28.497 10.461 27.634 10.154 26.778 10.023C26.575 9.98701 26.504 9.964 26.336 9.84C26.13 9.428 26.272 9.02501 26.392 8.60401C26.737 7.35501 26.384 5.96301 25.7 4.87101C25.459 4.52301 25.182 4.223 24.875 3.926C24.842 3.89 24.808 3.854 24.773 3.817C23.987 3.008 22.64 2.465 21.491 2.394C19.674 2.325 18.08 2.83901 16.813 4.10201Z" fill="#1B4051"/>
<path d="M11.001 26.133C11.181 26.238 11.282 26.308 11.376 26.484C11.385 26.631 11.39 26.775 11.391 26.921C11.392 26.965 11.392 27.008 11.393 27.053C11.394 27.145 11.394 27.236 11.395 27.328C11.396 27.468 11.399 27.608 11.401 27.748C11.402 27.838 11.403 27.927 11.403 28.016C11.404 28.058 11.405 28.1 11.406 28.143C11.405 28.355 11.382 28.468 11.257 28.648C11.072 28.82 11.028 28.827 10.759 28.839C10.558 28.836 10.415 28.83 10.251 28.711C9.98701 28.377 10.033 28.011 10.036 27.614C10.036 27.485 10.035 27.355 10.033 27.226C10.033 27.143 10.033 27.06 10.033 26.977C10.033 26.902 10.033 26.827 10.032 26.75C10.069 26.508 10.151 26.381 10.314 26.191C10.53 26.09 10.765 26.104 11.001 26.133Z" fill="#1B4051"/>
<path d="M10.936 21.621C11.173 21.722 11.282 21.804 11.373 22.031C11.387 22.178 11.395 22.318 11.396 22.465C11.397 22.528 11.397 22.528 11.398 22.592C11.399 22.68 11.4 22.768 11.4 22.856C11.401 22.99 11.404 23.124 11.407 23.258C11.407 23.344 11.408 23.43 11.408 23.516C11.409 23.556 11.411 23.596 11.412 23.636C11.41 23.857 11.37 23.995 11.226 24.165C11.061 24.317 11.061 24.317 10.881 24.379C10.627 24.374 10.469 24.317 10.248 24.199C10.055 23.965 10.037 23.783 10.036 23.491C10.036 23.452 10.036 23.412 10.035 23.372C10.035 23.289 10.036 23.207 10.036 23.124C10.037 22.999 10.036 22.873 10.035 22.747C10.035 22.667 10.036 22.586 10.036 22.506C10.036 22.433 10.036 22.36 10.037 22.285C10.063 22.075 10.114 21.966 10.248 21.797C10.478 21.628 10.646 21.587 10.936 21.621Z" fill="#1B4051"/>
<path d="M15.936 26.133C16.116 26.238 16.217 26.308 16.311 26.485C16.32 26.631 16.325 26.775 16.326 26.921C16.327 26.965 16.327 27.008 16.328 27.053C16.329 27.145 16.329 27.237 16.33 27.328C16.331 27.469 16.334 27.608 16.336 27.749C16.337 27.838 16.338 27.927 16.338 28.016C16.339 28.058 16.34 28.1 16.341 28.143C16.34 28.355 16.317 28.469 16.192 28.648C16.013 28.815 15.96 28.826 15.702 28.85C15.495 28.848 15.383 28.815 15.221 28.693C14.911 28.387 14.985 28.015 14.984 27.615C14.983 27.493 14.981 27.371 14.979 27.249C14.979 27.171 14.979 27.093 14.978 27.014C14.978 26.944 14.977 26.873 14.977 26.8C15.001 26.578 15.061 26.439 15.186 26.25C15.438 26.093 15.641 26.092 15.936 26.133Z" fill="#1B4051"/>
<path d="M15.873 21.621C16.222 21.806 16.222 21.806 16.311 21.973C16.329 22.253 16.33 22.533 16.333 22.813C16.334 22.907 16.335 23 16.338 23.094C16.341 23.229 16.343 23.364 16.344 23.499C16.345 23.54 16.346 23.582 16.348 23.624C16.347 23.849 16.311 23.993 16.164 24.166C15.998 24.317 15.998 24.317 15.819 24.379C15.562 24.374 15.407 24.321 15.186 24.199C15.017 23.946 14.974 23.751 14.973 23.454C14.973 23.38 14.973 23.306 14.973 23.23C14.973 23.154 14.974 23.077 14.975 22.998C14.974 22.922 14.973 22.845 14.973 22.766C14.973 22.692 14.973 22.618 14.973 22.542C14.974 22.475 14.974 22.408 14.974 22.339C15.009 22.063 15.098 21.863 15.33 21.687C15.534 21.607 15.654 21.592 15.873 21.621Z" fill="#1B4051"/>
<path d="M21 21.68C21.214 21.86 21.27 22.006 21.313 22.266C21.326 22.509 21.324 22.751 21.324 22.995C21.325 23.06 21.326 23.126 21.327 23.193C21.328 23.908 21.328 23.908 21.078 24.218C20.897 24.345 20.789 24.371 20.563 24.375C20.291 24.29 20.161 24.249 20 24.024C19.987 23.87 19.98 23.722 19.979 23.568C19.979 23.524 19.978 23.479 19.978 23.433C19.977 23.339 19.977 23.245 19.977 23.15C19.977 23.006 19.975 22.863 19.972 22.719C19.972 22.627 19.972 22.536 19.971 22.444C19.971 22.401 19.97 22.358 19.969 22.314C19.971 22.102 19.994 21.982 20.115 21.801C20.376 21.567 20.67 21.598 21 21.68Z" fill="#1B4051"/>
<path d="M20.753 26.104C20.984 26.158 21.092 26.261 21.251 26.426C21.353 26.765 21.328 27.123 21.329 27.473C21.331 27.541 21.332 27.609 21.333 27.679C21.335 28.1 21.328 28.435 21.021 28.766C20.807 28.858 20.604 28.868 20.376 28.828C20.2 28.723 20.094 28.651 20.001 28.476C19.982 28.187 19.979 27.897 19.976 27.608C19.974 27.511 19.972 27.414 19.969 27.318C19.965 27.178 19.963 27.038 19.962 26.899C19.961 26.856 19.959 26.813 19.957 26.769C19.958 26.6 19.966 26.466 20.083 26.333C20.31 26.15 20.462 26.086 20.753 26.104Z" fill="#1B4051"/>
</g>
</svg>
