<svg width="34" height="30" viewBox="0 0 34 30" fill="none" xmlns="http://www.w3.org/2000/svg">
<g clip-path="url(#clip0_1054_833)">
<path d="M16.9638 7.01672C17.0116 7.01668 17.0594 7.01664 17.1087 7.0166C17.8022 7.01751 18.4525 7.04294 19.1261 7.20715C19.2158 7.22666 19.3056 7.24612 19.3954 7.26552C20.7487 7.5732 21.9123 8.17759 22.9777 8.96496C23.0248 8.99933 23.072 9.0337 23.1206 9.0691C23.4377 9.30592 23.7141 9.55789 23.9738 9.84387C24.0004 9.87315 24.027 9.90243 24.0544 9.93259C25.3701 11.3979 26.0472 13.0985 26.049 14.9672C26.049 15.0094 26.0491 15.0515 26.0491 15.095C26.0481 15.707 26.0193 16.2808 25.8331 16.8751C25.811 16.9543 25.789 17.0335 25.767 17.1127C25.4183 18.3068 24.7333 19.3335 23.841 20.2736C23.802 20.3152 23.7631 20.3568 23.7229 20.3997C23.4545 20.6794 23.169 20.9233 22.8449 21.1525C22.8117 21.176 22.7785 21.1994 22.7443 21.2236C21.0836 22.3845 19.1563 22.982 17.0385 22.9835C16.9907 22.9836 16.9428 22.9836 16.8936 22.9836C16.2 22.9827 15.5497 22.9573 14.8761 22.7931C14.7864 22.7736 14.6966 22.7541 14.6069 22.7347C13.2535 22.427 12.09 21.8227 11.0245 21.0353C10.9538 20.9837 10.9538 20.9837 10.8816 20.9311C10.5645 20.6943 10.2882 20.4424 10.0285 20.1564C10.0018 20.1271 9.97521 20.0978 9.94778 20.0676C8.63213 18.6024 7.95504 16.9018 7.95326 15.0331C7.95322 14.9909 7.95317 14.9487 7.95312 14.9052C7.95416 14.2933 7.98297 13.7195 8.16908 13.1251C8.19119 13.0459 8.21324 12.9667 8.23523 12.8875C8.58394 11.6934 9.26891 10.6668 10.1613 9.72668C10.2002 9.68506 10.2392 9.64345 10.2793 9.60057C10.5477 9.3208 10.8333 9.07692 11.1574 8.84778C11.2071 8.81254 11.2071 8.81254 11.2579 8.77659C12.9186 7.61572 14.8459 7.01829 16.9638 7.01672ZM12.2863 10.84C12.2437 10.8744 12.2012 10.9088 12.1573 10.9443C10.9833 11.9269 10.3829 13.4155 10.2967 14.8134C10.2545 16.472 11.0077 17.9665 12.2863 19.1603C12.3253 19.1978 12.3643 19.2354 12.4046 19.274C13.5182 20.3099 15.2052 20.8397 16.7894 20.9158C18.6692 20.953 20.3631 20.2885 21.716 19.1603C21.7585 19.1258 21.801 19.0914 21.8449 19.0559C23.0189 18.0733 23.6193 16.5848 23.7055 15.1869C23.7477 13.5282 22.9946 12.0337 21.716 10.84C21.6769 10.8024 21.6379 10.7649 21.5977 10.7262C20.4841 9.69032 18.7971 9.16053 17.2128 9.08444C15.333 9.04725 13.6392 9.71178 12.2863 10.84Z" fill="#F0E700"/>
<path d="M25.854 21.7824C25.9154 21.7809 25.9768 21.7794 26.04 21.7778C26.5588 21.8299 26.877 22.1624 27.2286 22.4713C27.285 22.5206 27.3415 22.5698 27.3996 22.6205C27.5186 22.7246 27.6373 22.8289 27.7557 22.9335C27.9365 23.0926 28.1189 23.2503 28.3013 23.4079C28.417 23.5095 28.5325 23.6111 28.648 23.7128C28.7024 23.7595 28.7567 23.8062 28.8128 23.8543C29.1769 24.1796 29.4111 24.4824 29.4236 24.9506C29.3371 25.2995 29.2141 25.5583 28.8879 25.7814C28.5302 25.9613 28.1921 25.9915 27.7954 25.8977C27.6169 25.8368 27.5144 25.7714 27.3739 25.6581C27.3282 25.6213 27.2824 25.5845 27.2353 25.5467C27.0052 25.3551 26.7782 25.1611 26.5539 24.9643C26.5048 24.9214 26.4558 24.8784 26.4052 24.8342C26.3026 24.7442 26.2 24.6541 26.0975 24.5639C25.9407 24.426 25.7831 24.2888 25.6255 24.1516C25.5254 24.0636 25.4253 23.9757 25.3253 23.8877C25.2783 23.8469 25.2313 23.8061 25.1828 23.7641C24.8502 23.4693 24.6857 23.2531 24.6836 22.8261C24.6917 22.5142 24.7403 22.293 24.9985 22.0646C25.2787 21.8475 25.4887 21.7878 25.854 21.7824Z" fill="#F0E700"/>
<path d="M8.7233 21.8627C8.99368 22.0331 9.18893 22.2163 9.29605 22.4999C9.30563 22.6034 9.3107 22.7073 9.31266 22.8112C9.31437 22.8653 9.31608 22.9195 9.31784 22.9753C9.25887 23.4331 8.88198 23.7138 8.53186 24.024C8.47608 24.0738 8.42029 24.1236 8.36282 24.1749C8.24485 24.2799 8.12662 24.3846 8.00814 24.4892C7.82778 24.6487 7.64908 24.8096 7.4704 24.9705C7.35533 25.0726 7.24016 25.1746 7.12488 25.2764C7.07194 25.3244 7.019 25.3724 6.96446 25.4218C6.59588 25.7431 6.25261 25.9498 5.72205 25.9608C5.32662 25.8845 5.03327 25.776 4.78043 25.4882C4.57659 25.1725 4.54238 24.8741 4.64862 24.5241C4.71764 24.3666 4.79176 24.2763 4.92021 24.1523C4.98273 24.0917 4.98273 24.0917 5.0465 24.0299C5.2636 23.8269 5.48348 23.6267 5.70649 23.4287C5.75515 23.3854 5.80382 23.3421 5.85397 23.2975C5.956 23.207 6.05812 23.1165 6.16034 23.0261C6.31658 22.8876 6.47209 22.7486 6.62761 22.6095C6.72726 22.5212 6.82696 22.4329 6.9267 22.3447C6.97292 22.3032 7.01913 22.2617 7.06675 22.2189C7.54965 21.7948 8.05662 21.6666 8.7233 21.8627Z" fill="#F0E700"/>
<path d="M29.6627 13.9358C29.7764 13.935 29.7764 13.935 29.8924 13.9341C29.9741 13.9339 30.0557 13.9336 30.1398 13.9333C30.2661 13.9328 30.2661 13.9328 30.3949 13.9323C30.5729 13.9318 30.751 13.9314 30.9291 13.9312C31.1565 13.9308 31.3839 13.9294 31.6114 13.9278C31.8292 13.9264 32.047 13.9263 32.2648 13.926C32.3462 13.9253 32.4275 13.9246 32.5113 13.9238C33.0169 13.925 33.3292 13.9598 33.718 14.2638C34.012 14.5593 34.0295 14.7904 34.0209 15.1769C33.9901 15.4362 33.9185 15.5567 33.7346 15.7617C33.4105 15.9834 33.1733 16.0616 32.7681 16.0641C32.6925 16.0646 32.6169 16.0652 32.539 16.0658C32.4164 16.0661 32.4164 16.0661 32.2913 16.0665C32.1651 16.067 32.1651 16.067 32.0364 16.0675C31.8582 16.0681 31.68 16.0685 31.5018 16.0687C31.2745 16.069 31.0471 16.0704 30.8197 16.0721C30.6019 16.0735 30.3841 16.0736 30.1663 16.0738C30.085 16.0746 30.0038 16.0753 29.9201 16.076C29.4436 16.0749 29.0631 16.0665 28.6903 15.7781C28.6593 15.7437 28.6283 15.7092 28.5964 15.6738C28.5644 15.6393 28.5323 15.6049 28.4994 15.5694C28.2998 15.3095 28.3274 15.0077 28.3557 14.707C28.4724 14.3918 28.7101 14.1842 29.0197 14.0038C29.2357 13.9426 29.4368 13.9372 29.6627 13.9358Z" fill="#F0E700"/>
<path d="M28.8905 4.22843C29.1614 4.40855 29.3079 4.60827 29.3953 4.897C29.4402 5.20085 29.397 5.48691 29.1898 5.73908C29.1527 5.77492 29.1156 5.81076 29.0773 5.84769C29.0356 5.88806 28.994 5.92843 28.951 5.97003C28.7339 6.17306 28.5141 6.37329 28.291 6.57127C28.2424 6.61455 28.1937 6.65782 28.1436 6.70241C28.0415 6.79299 27.9394 6.88348 27.8372 6.9739C27.681 7.11233 27.5254 7.25138 27.3699 7.39044C27.2703 7.47875 27.1706 7.56702 27.0708 7.65525C27.0246 7.69675 26.9784 7.73825 26.9308 7.78101C26.5966 8.0745 26.3516 8.21969 25.8677 8.22151C25.5142 8.21439 25.2636 8.17144 25.0047 7.94364C24.7586 7.69637 24.6909 7.51113 24.6849 7.18879C24.6823 7.10756 24.6823 7.10756 24.6797 7.02468C24.7387 6.56689 25.1156 6.28614 25.4657 5.97595C25.5215 5.92614 25.5772 5.87633 25.6347 5.82502C25.7527 5.72004 25.8709 5.6153 25.9894 5.51079C26.1698 5.35126 26.3485 5.19039 26.5271 5.02941C26.6422 4.92735 26.7574 4.82538 26.8727 4.7235C26.9256 4.67553 26.9785 4.62755 27.0331 4.57813C27.5766 4.10427 28.176 3.87596 28.8905 4.22843Z" fill="#F0E700"/>
<path d="M6.50471 4.24283C6.54533 4.27559 6.58595 4.30835 6.6278 4.34211C6.69644 4.39727 6.69644 4.39727 6.76645 4.45354C6.99656 4.64509 7.22348 4.8391 7.44786 5.03588C7.49691 5.07882 7.54596 5.12176 7.59649 5.16601C7.69914 5.25603 7.80171 5.34614 7.90418 5.43633C8.06107 5.57419 8.21865 5.71141 8.37625 5.84863C8.47634 5.93656 8.57638 6.02453 8.67638 6.11254C8.72341 6.15331 8.77045 6.19409 8.81891 6.23611C9.15153 6.53094 9.31607 6.74714 9.31813 7.17409C9.31006 7.48601 9.26139 7.70716 9.00322 7.93558C8.72298 8.15271 8.51304 8.21244 8.14772 8.21779C8.08634 8.2193 8.02497 8.22081 7.96173 8.22237C7.4429 8.17033 7.12472 7.83778 6.77316 7.52886C6.71671 7.47963 6.66027 7.43041 6.60211 7.3797C6.48314 7.27561 6.36443 7.17129 6.24598 7.06674C6.06519 6.90761 5.88287 6.74993 5.70042 6.59227C5.58476 6.49074 5.46919 6.38911 5.35373 6.2874C5.29936 6.24069 5.24499 6.19398 5.18897 6.14585C4.8248 5.82063 4.59062 5.51775 4.57812 5.04961C4.66458 4.7007 4.78761 4.44186 5.11378 4.21877C5.55501 3.99694 6.08071 3.97159 6.50471 4.24283Z" fill="#F0E700"/>
<path d="M17.544 0.040746C17.891 0.196815 18.0755 0.442942 18.1959 0.761495C18.203 0.869525 18.2064 0.977767 18.2076 1.08598C18.2089 1.18575 18.2089 1.18575 18.2102 1.28753C18.2107 1.35949 18.2112 1.43145 18.2117 1.50559C18.2122 1.57966 18.2128 1.65373 18.2133 1.73005C18.2142 1.88703 18.215 2.044 18.2155 2.20098C18.2162 2.40108 18.2185 2.60115 18.2211 2.80124C18.2233 2.99313 18.2236 3.18503 18.2241 3.37693C18.2253 3.44829 18.2265 3.51966 18.2277 3.59319C18.2264 4.03397 18.1937 4.38581 17.8318 4.71945C17.5099 4.96908 17.2461 4.99818 16.8343 4.99238C16.4791 4.96638 16.2795 4.82569 16.0501 4.59939C15.8319 4.3689 15.7967 4.18545 15.7935 3.88866C15.7926 3.82098 15.7918 3.75329 15.7909 3.68356C15.7904 3.61031 15.7899 3.53707 15.7894 3.46161C15.7889 3.38624 15.7883 3.31087 15.7878 3.23321C15.7868 3.07348 15.7861 2.91375 15.7856 2.75401C15.7849 2.55036 15.7826 2.34675 15.78 2.14311C15.7778 1.94785 15.7775 1.75259 15.777 1.55732C15.7758 1.48467 15.7746 1.41202 15.7734 1.33717C15.7747 0.876811 15.8191 0.535079 16.185 0.182882C16.6033 -0.0502424 17.0695 -0.0933224 17.544 0.040746Z" fill="#F0E700"/>
<path d="M17.4713 25.0616C17.8505 25.2413 18.0619 25.4863 18.1971 25.8398C18.2144 26.0017 18.2144 26.0017 18.2153 26.1795C18.2163 26.2798 18.2163 26.2798 18.2172 26.3822C18.2172 26.4539 18.2171 26.5256 18.217 26.5995C18.2173 26.6737 18.2176 26.7479 18.2179 26.8243C18.2183 26.9811 18.2184 27.1378 18.218 27.2946C18.2176 27.4948 18.2188 27.695 18.2203 27.8953C18.2215 28.0871 18.2213 28.279 18.2212 28.4708C18.2218 28.5424 18.2224 28.614 18.223 28.6878C18.2203 29.1328 18.1797 29.4088 17.836 29.751C17.5041 30.0081 17.2405 30.0297 16.8056 30.0217C16.5041 29.9893 16.2785 29.9057 16.0721 29.707C15.7741 29.2916 15.7675 28.9348 15.7712 28.4507C15.7709 28.3756 15.7707 28.3005 15.7704 28.2231C15.77 28.0649 15.7706 27.9067 15.7718 27.7484C15.7733 27.5466 15.7724 27.3447 15.7709 27.1429C15.7697 26.9489 15.7705 26.755 15.7712 26.561C15.7706 26.489 15.7701 26.417 15.7695 26.3428C15.7751 25.8901 15.8237 25.6101 16.1782 25.269C16.5627 25.0066 16.9987 24.9169 17.4713 25.0616Z" fill="#F0E700"/>
<path d="M1.22988 13.9352C1.30526 13.9344 1.38065 13.9337 1.45831 13.9329C1.53986 13.9325 1.62142 13.932 1.70544 13.9316C1.78939 13.9311 1.87334 13.9306 1.95983 13.9301C2.13774 13.9293 2.31564 13.9287 2.49355 13.9282C2.72033 13.9276 2.94707 13.9256 3.17384 13.9233C3.39132 13.9213 3.6088 13.9211 3.82629 13.9206C3.90717 13.9196 3.98805 13.9185 4.07139 13.9175C4.57094 13.9186 4.96969 13.9474 5.34782 14.2668C5.62765 14.5477 5.66682 14.7823 5.66206 15.1426C5.62476 15.4434 5.46381 15.6313 5.2159 15.8388C4.92069 16.0104 4.68156 16.0696 4.32877 16.071C4.21507 16.0718 4.21507 16.0718 4.09907 16.0727C4.01778 16.0726 3.9365 16.0726 3.85275 16.0725C3.76868 16.0728 3.6846 16.073 3.59798 16.0733C3.4203 16.0736 3.24265 16.0737 3.06497 16.0734C2.83803 16.0731 2.61113 16.0741 2.3842 16.0754C2.16677 16.0765 1.94934 16.0763 1.7319 16.0762C1.65075 16.0767 1.5696 16.0773 1.48599 16.0778C0.981631 16.0754 0.66885 16.0396 0.28108 15.7363C-0.0129491 15.4408 -0.0304337 15.2098 -0.021898 14.8233C0.00892115 14.5639 0.0805544 14.4435 0.264479 14.2385C0.587861 14.0172 0.825469 13.9387 1.22988 13.9352Z" fill="#F0E700"/>
</g>
<defs>
<clipPath id="clip0_1054_833">
<rect width="34" height="30" fill="white"/>
</clipPath>
</defs>
</svg>
