<svg width="33" height="27" viewBox="0 0 33 27" fill="none" xmlns="http://www.w3.org/2000/svg">
<path d="M21.877 13.1226C23.029 14.0276 23.825 15.1826 23.963 16.6176C24.003 17.1216 24.004 17.6146 23.936 18.1176C24 18.1416 24.064 18.1656 24.13 18.1906C25.432 18.6936 26.365 19.4866 26.932 20.7096C27.405 21.8646 27.337 23.0676 26.838 24.2076C26.291 25.2986 25.356 26.0326 24.186 26.4966C23.595 26.6866 23.03 26.7396 22.41 26.7386C22.345 26.7396 22.28 26.7396 22.214 26.7396C21.997 26.7406 21.781 26.7406 21.564 26.7406C21.409 26.7406 21.253 26.7406 21.098 26.7416C20.675 26.7416 20.253 26.7426 19.831 26.7426C19.567 26.7426 19.303 26.7426 19.039 26.7436C18.307 26.7436 17.575 26.7446 16.843 26.7446C16.796 26.7446 16.749 26.7446 16.701 26.7446C16.631 26.7446 16.631 26.7446 16.559 26.7446C16.464 26.7446 16.369 26.7446 16.274 26.7446C16.203 26.7446 16.203 26.7446 16.131 26.7446C15.368 26.7456 14.605 26.7466 13.842 26.7476C13.057 26.7486 12.272 26.7496 11.487 26.7496C11.047 26.7496 10.607 26.7506 10.167 26.7516C9.75298 26.7526 9.339 26.7526 8.924 26.7516C8.773 26.7516 8.62099 26.7516 8.46999 26.7526C6.67899 26.7586 5.12598 26.4746 3.79698 25.2566C2.74798 24.2536 2.17798 22.9736 2.18398 21.5606C2.21698 20.3646 2.64499 19.2936 3.43599 18.3516C3.48699 18.2906 3.48698 18.2906 3.53798 18.2286C4.35198 17.3066 5.61297 16.6996 6.87297 16.5356C7.00397 16.5306 7.135 16.5296 7.265 16.5296C7.338 16.5296 7.40999 16.5306 7.48399 16.5306C7.55799 16.5306 7.633 16.5316 7.709 16.5316C7.823 16.5326 7.82298 16.5326 7.93898 16.5326C8.12498 16.5336 8.31197 16.5346 8.49797 16.5356C8.52197 16.4926 8.546 16.4496 8.571 16.4056C8.813 15.9786 9.07199 15.6466 9.43599 15.3046C9.47899 15.2636 9.52199 15.2216 9.56599 15.1786C10.455 14.3736 11.597 14.1676 12.786 14.1776C13.205 14.1886 13.595 14.2606 13.998 14.3676C14.02 14.3396 14.041 14.3126 14.063 14.2836C14.164 14.1536 14.268 14.0256 14.373 13.8986C14.408 13.8566 14.443 13.8146 14.479 13.7706C16.267 11.7436 19.708 11.5486 21.877 13.1226ZM15.328 14.7446C15.143 14.9576 15 15.1966 14.858 15.4366C14.75 15.5956 14.671 15.6806 14.498 15.7736C14.084 15.8296 13.795 15.7106 13.419 15.5506C12.797 15.2966 11.976 15.3546 11.355 15.5826C10.471 15.9676 9.89699 16.5216 9.55299 17.3816C9.53599 17.4286 9.519 17.4756 9.502 17.5236C9.42 17.6776 9.34499 17.7396 9.18599 17.8246C9.04899 17.8436 9.04897 17.8436 8.90797 17.8396C8.86197 17.8386 8.81599 17.8376 8.76799 17.8366C8.62299 17.8246 8.62299 17.8246 8.48799 17.7956C7.35699 17.6066 6.26899 17.8236 5.31099 18.4106C5.08699 18.5736 4.88399 18.7486 4.68599 18.9376C4.64499 18.9756 4.60497 19.0136 4.56297 19.0526C3.74597 19.8706 3.52799 20.8696 3.54399 21.9486C3.58099 22.9886 4.16197 23.8776 4.95497 24.5776C5.77797 25.2346 6.78898 25.5196 7.85298 25.5156C7.91798 25.5156 7.98199 25.5166 8.04799 25.5166C8.26199 25.5166 8.47599 25.5166 8.68999 25.5166C8.84399 25.5166 8.99799 25.5166 9.15199 25.5176C9.52499 25.5176 9.899 25.5186 10.273 25.5186C10.577 25.5176 10.881 25.5186 11.185 25.5186C11.229 25.5186 11.272 25.5186 11.317 25.5186C11.405 25.5186 11.493 25.5186 11.581 25.5186C12.407 25.5196 13.233 25.5196 14.058 25.5186C14.812 25.5186 15.566 25.5196 16.32 25.5206C17.096 25.5216 17.872 25.5216 18.648 25.5216C19.082 25.5216 19.517 25.5216 19.952 25.5226C20.361 25.5236 20.77 25.5236 21.18 25.5226C21.329 25.5226 21.479 25.5226 21.629 25.5226C22.805 25.5266 23.795 25.4716 24.768 24.7786C25.492 24.0996 25.932 23.3306 25.955 22.3546C25.92 21.3866 25.506 20.6176 24.768 19.9526C24.227 19.5136 23.638 19.3166 22.951 19.1756C22.731 19.1086 22.635 19.0526 22.498 18.8796C22.43 18.5886 22.509 18.3046 22.591 18.0236C22.837 16.9666 22.568 15.9476 21.983 15.0306C21.35 14.1446 20.391 13.5746 19.283 13.3566C17.753 13.1316 16.35 13.6776 15.328 14.7446Z" fill="#1B4051"/>
<path d="M26.726 6.00457C27.818 6.86057 28.552 7.99958 28.751 9.32858C28.756 9.45958 28.758 9.59058 28.757 9.72158C28.757 9.79458 28.757 9.86759 28.756 9.94259C28.756 10.0186 28.755 10.0936 28.755 10.1716C28.754 10.2476 28.754 10.3246 28.754 10.4036C28.753 10.5926 28.752 10.7806 28.751 10.9696C28.814 10.9926 28.878 11.0166 28.943 11.0406C29.532 11.2656 30.015 11.5166 30.501 11.9066C30.546 11.9426 30.592 11.9786 30.638 12.0156C31.4 12.6726 31.931 13.6786 32.015 14.6446C32.072 15.9946 31.805 17.1486 30.813 18.1766C30.774 18.2176 30.735 18.2596 30.695 18.3026C29.879 19.1186 28.673 19.5596 27.493 19.5976C27.236 19.5946 27.075 19.5716 26.876 19.4066C26.717 19.2336 26.672 19.1036 26.684 18.8796C26.7 18.6886 26.763 18.6336 26.907 18.4896C27.15 18.3116 27.397 18.2926 27.696 18.2646C28.662 18.1456 29.372 17.7956 30.01 17.0976C30.59 16.3376 30.704 15.5086 30.626 14.6026C30.48 13.8606 30.019 13.1246 29.356 12.6916C28.88 12.4106 28.401 12.2276 27.852 12.1156C27.623 12.0646 27.516 12.0356 27.333 11.8926C27.171 11.5746 27.173 11.3496 27.278 11.0166C27.569 10.0106 27.372 8.99558 26.856 8.08758C26.288 7.19958 25.445 6.63257 24.4 6.33457C23.193 6.06457 22.115 6.28358 21.063 6.86758C20.437 7.24658 20.013 7.74358 19.666 8.35558C19.561 8.51258 19.484 8.59356 19.313 8.68456C19.121 8.72256 18.944 8.71956 18.751 8.68456C18.579 8.55656 18.474 8.45759 18.376 8.27459C18.352 7.61859 18.841 7.08357 19.282 6.61157C19.375 6.52057 19.468 6.42957 19.563 6.34057C19.606 6.29957 19.649 6.25858 19.693 6.21658C21.578 4.53158 24.72 4.50957 26.726 6.00457Z" fill="#1B4051"/>
<path d="M15.532 5.67457C15.684 5.78957 15.831 5.90858 15.977 6.03158C16.028 6.07158 16.078 6.11158 16.131 6.15258C17.323 7.12158 18.165 8.65759 18.304 10.1366C18.314 10.3316 18.323 10.5276 18.326 10.7236C18.329 10.8346 18.329 10.8346 18.331 10.9476C18.298 11.1856 18.23 11.2766 18.05 11.4426C17.865 11.5406 17.761 11.5576 17.549 11.5476C17.332 11.4856 17.212 11.4066 17.052 11.2566C16.988 11.0736 16.973 10.9026 16.957 10.7106C16.86 9.54157 16.487 8.44257 15.65 7.55157C15.601 7.49457 15.553 7.43658 15.503 7.37658C14.673 6.42358 13.268 5.91058 12.002 5.78158C10.67 5.67358 9.247 6.01157 8.203 6.81457C8.012 6.96857 7.83101 7.13158 7.65201 7.29858C7.60501 7.34158 7.55801 7.38358 7.51001 7.42758C6.55401 8.34858 6.094 9.66656 6.095 10.9346C6.125 12.3096 6.75001 13.5886 7.76901 14.5666C7.87201 14.6456 7.97601 14.7246 8.07901 14.8036C8.23201 15.0226 8.235 15.1976 8.198 15.4496C8.091 15.6756 7.99799 15.7636 7.75699 15.8556C7.42399 15.8816 7.27399 15.8456 7.00299 15.6596C5.71499 14.6106 4.884 13.0166 4.737 11.4316C4.627 9.65257 5.14199 7.99057 6.40799 6.64257C6.44599 6.59857 6.48401 6.55558 6.52301 6.51058C8.70501 4.10158 12.864 3.88457 15.532 5.67457Z" fill="#FAFF00"/>
<path d="M4.12499 14.3676C4.30999 14.4736 4.464 14.5926 4.562 14.7776C4.586 15.0766 4.56399 15.2396 4.37499 15.4806C4.21199 15.5916 4.212 15.5916 4.019 15.6936C3.948 15.7316 3.87798 15.7686 3.80498 15.8076C3.73098 15.8466 3.65599 15.8856 3.58199 15.9246C3.50899 15.9636 3.43499 16.0026 3.36199 16.0416C2.22299 16.6456 2.22299 16.6456 1.87499 16.5946C1.70099 16.5206 1.595 16.4586 1.48 16.3156C1.401 16.0726 1.395 15.8596 1.51 15.6276C1.648 15.4516 1.77999 15.3756 1.98299 15.2686C2.05399 15.2306 2.12498 15.1936 2.19698 15.1546C2.27198 15.1156 2.34698 15.0766 2.42198 15.0376C2.49498 14.9986 2.56899 14.9596 2.64299 14.9206C2.78299 14.8466 2.92399 14.7726 3.06499 14.6986C3.21399 14.6216 3.36 14.5416 3.506 14.4596C3.736 14.3436 3.86799 14.3286 4.12499 14.3676Z" fill="#FAFF00"/>
<path d="M2.54699 5.24459C2.75099 5.34659 2.95099 5.45258 3.15099 5.56058C3.25299 5.61458 3.25299 5.61459 3.35799 5.66959C4.32499 6.18359 4.32499 6.18358 4.56099 6.51658C4.58799 6.70958 4.60499 6.85658 4.49499 7.02958C4.31899 7.23158 4.21099 7.32659 3.93499 7.35859C3.59899 7.32859 3.37201 7.20158 3.08401 7.04358C3.03001 7.01458 2.97499 6.98559 2.91799 6.95459C2.75699 6.86859 2.59599 6.78059 2.43599 6.69159C2.39199 6.66759 2.34799 6.64357 2.30199 6.61957C1.58799 6.23057 1.58799 6.23059 1.43599 5.98859C1.38399 5.60759 1.38399 5.60759 1.49999 5.41359C1.80899 5.05059 2.12799 5.06059 2.54699 5.24459Z" fill="#FAFF00"/>
<path d="M6.50201 1.47658C6.58901 1.57658 6.58898 1.57658 6.67498 1.70158C6.72298 1.77358 6.723 1.77358 6.772 1.84558C6.963 2.13458 7.15001 2.42558 7.33401 2.71858C7.37301 2.78058 7.41301 2.84158 7.45401 2.90558C7.51001 2.99558 7.50998 2.99559 7.56698 3.08759C7.60098 3.14059 7.63501 3.19459 7.67001 3.24959C7.80801 3.52059 7.83799 3.69658 7.73599 3.98158C7.62699 4.17258 7.62699 4.17258 7.43899 4.28958C7.29699 4.31558 7.297 4.31559 7.138 4.32259C7.086 4.32659 7.03498 4.32959 6.98098 4.33359C6.49598 4.20559 6.22101 3.56258 5.98401 3.17358C5.91601 3.06258 5.846 2.95258 5.776 2.84358C5.36 2.17358 5.35999 2.17358 5.43899 1.76958C5.53399 1.57158 5.68499 1.44459 5.89999 1.35959C6.13799 1.35959 6.28301 1.38358 6.50201 1.47658Z" fill="#FAFF00"/>
<path d="M17.249 1.41857C17.429 1.52357 17.53 1.59257 17.624 1.76957C17.698 2.24957 17.461 2.56657 17.206 2.97057C17.167 3.03457 17.128 3.09857 17.088 3.16457C16.976 3.34457 16.863 3.52458 16.749 3.70358C16.719 3.75158 16.689 3.79957 16.657 3.84957C16.617 3.91257 16.617 3.91257 16.576 3.97657C16.553 4.01157 16.531 4.04758 16.507 4.08358C16.397 4.22258 16.286 4.28357 16.105 4.31057C15.831 4.31757 15.668 4.31457 15.429 4.17957C15.262 3.91857 15.259 3.70858 15.312 3.41058C15.424 3.15958 15.571 2.93358 15.726 2.70358C15.764 2.64358 15.803 2.58357 15.843 2.52157C16.608 1.34057 16.608 1.34057 17.249 1.41857Z" fill="#FAFF00"/>
<path d="M11.752 0.0125898C11.938 0.11659 12.091 0.238578 12.189 0.422578C12.198 0.598578 12.203 0.773586 12.204 0.949586C12.205 1.00159 12.205 1.05458 12.206 1.10858C12.207 1.21958 12.207 1.33059 12.208 1.44159C12.209 1.61159 12.212 1.78158 12.214 1.95058C12.215 2.05858 12.216 2.16658 12.216 2.27458C12.217 2.32558 12.218 2.37659 12.219 2.42859C12.218 2.66859 12.211 2.79258 12.072 3.00058C11.923 3.13258 11.826 3.19059 11.627 3.23459C11.323 3.22359 11.157 3.14058 10.939 2.94258C10.81 2.57858 10.858 2.15259 10.855 1.77059C10.854 1.66059 10.852 1.55058 10.85 1.44058C10.846 1.28158 10.845 1.12258 10.844 0.963579C10.843 0.914579 10.841 0.865584 10.84 0.815584C10.841 0.568584 10.859 0.411585 11.027 0.216585C11.272 -0.00341542 11.414 -0.0194102 11.752 0.0125898Z" fill="#FAFF00"/>
<path d="M0.954987 10.3726C1.01299 10.3726 1.07199 10.3726 1.13199 10.3726C1.25499 10.3726 1.37901 10.3726 1.50201 10.3746C1.69101 10.3766 1.87899 10.3756 2.06699 10.3746C2.18699 10.3746 2.307 10.3756 2.427 10.3766C2.512 10.3756 2.51199 10.3756 2.59799 10.3756C2.85599 10.3796 3.00001 10.3896 3.22501 10.5176C3.38601 10.6836 3.40799 10.7956 3.42899 11.0176C3.40599 11.2686 3.353 11.3516 3.16 11.5226C2.893 11.6536 2.635 11.6576 2.34 11.6576C2.267 11.6576 2.26699 11.6576 2.19299 11.6586C2.09099 11.6586 1.98899 11.6586 1.88699 11.6586C1.73099 11.6586 1.57601 11.6596 1.42001 11.6606C1.32101 11.6616 1.221 11.6616 1.121 11.6616C1.052 11.6616 1.05199 11.6616 0.981995 11.6626C0.663995 11.6606 0.441004 11.6056 0.160004 11.4636C0.0290037 11.2796 0.0129956 11.2166 0.00799561 11.0026C0.00499561 10.9536 0.003 10.9036 0 10.8526C0.111 10.3746 0.522987 10.3666 0.954987 10.3726Z" fill="#FAFF00"/>
</svg>
